<?xml version="1.0" encoding="UTF-8"?>
<svg xmlns="http://www.w3.org/2000/svg" viewBox="0 0 1200 900" width="1200" height="900">
  <defs>

        <linearGradient id="bgGradient" x1="0%" y1="0%" x2="100%" y2="100%">
            <stop offset="0%" stop-color="#180C14" />
            <stop offset="100%" stop-color="#2A111B" />
        </linearGradient>

        <linearGradient id="accentGradient" x1="0%" y1="0%" x2="100%" y2="0%">
            <stop offset="0%" stop-color="#E11D48" />
            <stop offset="100%" stop-color="#DC2626" />
        </linearGradient>

        <linearGradient id="highlightGradient" x1="0%" y1="0%" x2="100%" y2="100%">
            <stop offset="0%" stop-color="#DC2626" />
            <stop offset="100%" stop-color="#FB7185" />
        </linearGradient>

        <filter id="cardShadow" x="-10%" y="-10%" width="125%" height="125%">
            <feDropShadow dx="0" dy="8" stdDeviation="12" flood-color="#000000" flood-opacity="0.35"/>
        </filter>

        <filter id="accentGlow" x="-20%" y="-20%" width="140%" height="140%">
            <feGaussianBlur stdDeviation="8" result="blur" />
            <feComposite in="SourceGraphic" in2="blur" operator="over" />
        </filter>

        <pattern id="dotGrid" x="0" y="0" width="32" height="32" patternUnits="userSpaceOnUse">
            <circle cx="2" cy="2" r="1.2" fill="rgba(255, 255, 255, 0.05)" />
        </pattern>
  </defs>
  <rect width="1200" height="900" fill="url(#bgGradient)" />
  <rect width="1200" height="900" fill="url(#dotGrid)" />
  <circle cx="1020.0" cy="135.0" r="405.0" fill="#E11D48" opacity="0.12" filter="blur(60px)" />
  <circle cx="120.0" cy="765.0" r="315.0" fill="#DC2626" opacity="0.08" filter="blur(50px)" />
  <path d="M 0,225.0 L 180.0,0" stroke="rgba(255,255,255,0.04)" stroke-width="1.5" />
  <path d="M 1020.0,900 L 1200,675.0" stroke="rgba(255,255,255,0.04)" stroke-width="1.5" />
  <rect x="80.0" y="65.0" width="285.6" height="26.0" rx="13.0" fill="rgba(225, 29, 72, 0.20)" stroke="#FDA4AF" stroke-width="1" stroke-opacity="0.35" />
  <g transform="translate(88.0, 71.0) scale(0.583)" stroke="#FDA4AF" fill="none" stroke-width="2.0" stroke-linecap="round" stroke-linejoin="round"><path d="m12 3-1.9 5.8a2 2 0 0 1-1.3 1.3L3 12l5.8 1.9a2 2 0 0 1 1.3 1.3L12 21l1.9-5.8a2 2 0 0 1 1.3-1.3L21 12l-5.8-1.9a2 2 0 0 1-1.3-1.3L12 3z"/></g>
  <text x="108.0" y="82.2" fill="#FDA4AF" font-family="system-ui, -apple-system, sans-serif" font-size="12" font-weight="700" letter-spacing="1.2px">KEY CAPABILITIES • CYBERSECURITY</text>
  <text x="80.0" y="135.0" fill="#FFF1F2" font-family="system-ui, -apple-system, BlinkMacSystemFont, 'Segoe UI', Roboto, sans-serif" font-size="38" font-weight="800" text-anchor="start"><tspan x="80.0">Zero Trust Network Access &amp; Identity</tspan><tspan x="80.0" dy="44.8">Architecture</tspan></text>
  <text x="80.0" y="214.8" fill="#E2E8F0" font-family="system-ui, -apple-system, BlinkMacSystemFont, 'Segoe UI', Roboto, sans-serif" font-size="16" font-weight="400" text-anchor="start"><tspan x="80.0">Pioneering sustainable performance, governance, and scalable</tspan><tspan x="80.0" dy="22.4">excellence in zero trust network access &amp; identity architecture.</tspan></text>
  <rect x="80.0" y="282.2" width="325.0" height="220.0" rx="18.0" fill="rgba(42, 17, 27, 0.76)" stroke="rgba(225, 29, 72, 0.30)" stroke-width="1.2" filter="url(#cardShadow)" />
  <path d="M 98.0,282.2 H 387.0" stroke="url(#accentGradient)" stroke-width="3" stroke-linecap="round" />
  <circle cx="120.0" cy="322.2" r="22.0" fill="rgba(255, 255, 255, 0.05)" /><g transform="translate(104.0, 306.2) scale(1.333)" stroke="#FB7185" fill="none" stroke-width="2.0" stroke-linecap="round" stroke-linejoin="round"><path d="M12 22s8-4 8-10V5l-8-3-8 3v7c0 6 8 10 8 10z"/><polyline points="9 12 11 14 15 10"/></g>
  <rect x="310.0" y="302.2" width="76.7" height="23.0" rx="11.5" fill="rgba(255, 255, 255, 0.06)" stroke="#F43F5E" stroke-width="1" stroke-opacity="0.35" />
  <text x="322.0" y="316.9" fill="#F43F5E" font-family="system-ui, -apple-system, sans-serif" font-size="9" font-weight="700" letter-spacing="1.2px">PILLAR 01</text>
  <text x="104.0" y="377.2" fill="#FFF1F2" font-family="system-ui, -apple-system, BlinkMacSystemFont, 'Segoe UI', Roboto, sans-serif" font-size="18" font-weight="700" text-anchor="start"><tspan x="104.0">Core Architecture</tspan></text>
  <text x="104.0" y="407.2" fill="#E2E8F0" font-family="system-ui, -apple-system, BlinkMacSystemFont, 'Segoe UI', Roboto, sans-serif" font-size="13" font-weight="400" text-anchor="start"><tspan x="104.0">Architectural blueprint engineered</tspan><tspan x="104.0" dy="18.2">for zero-bottleneck execution and</tspan><tspan x="104.0" dy="18.2">resilience.</tspan></text>
  <text x="104.0" y="477.2" fill="#E11D48" font-family="system-ui, -apple-system, BlinkMacSystemFont, 'Segoe UI', Roboto, sans-serif" font-size="12" font-weight="600" text-anchor="start"><tspan x="104.0">Explore capability →</tspan></text>
  <rect x="437.0" y="282.2" width="325.0" height="220.0" rx="18.0" fill="rgba(42, 17, 27, 0.76)" stroke="rgba(225, 29, 72, 0.30)" stroke-width="1.2" filter="url(#cardShadow)" />
  <path d="M 455.0,282.2 H 744.0" stroke="url(#accentGradient)" stroke-width="3" stroke-linecap="round" />
  <circle cx="477.0" cy="322.2" r="22.0" fill="rgba(255, 255, 255, 0.05)" /><g transform="translate(461.0, 306.2) scale(1.333)" stroke="#FB7185" fill="none" stroke-width="2.0" stroke-linecap="round" stroke-linejoin="round"><rect x="3" y="11" width="18" height="11" rx="2" ry="2"/><path d="M7 11V7a5 5 0 0 1 10 0v4"/></g>
  <rect x="667.0" y="302.2" width="76.7" height="23.0" rx="11.5" fill="rgba(255, 255, 255, 0.06)" stroke="#F43F5E" stroke-width="1" stroke-opacity="0.35" />
  <text x="679.0" y="316.9" fill="#F43F5E" font-family="system-ui, -apple-system, sans-serif" font-size="9" font-weight="700" letter-spacing="1.2px">PILLAR 02</text>
  <text x="461.0" y="377.2" fill="#FFF1F2" font-family="system-ui, -apple-system, BlinkMacSystemFont, 'Segoe UI', Roboto, sans-serif" font-size="18" font-weight="700" text-anchor="start"><tspan x="461.0">Autonomous Governance</tspan></text>
  <text x="461.0" y="407.2" fill="#E2E8F0" font-family="system-ui, -apple-system, BlinkMacSystemFont, 'Segoe UI', Roboto, sans-serif" font-size="13" font-weight="400" text-anchor="start"><tspan x="461.0">Continuous cryptographic</tspan><tspan x="461.0" dy="18.2">validation ensuring compliance and</tspan><tspan x="461.0" dy="18.2">rigorous safety.</tspan></text>
  <text x="461.0" y="477.2" fill="#E11D48" font-family="system-ui, -apple-system, BlinkMacSystemFont, 'Segoe UI', Roboto, sans-serif" font-size="12" font-weight="600" text-anchor="start"><tspan x="461.0">Explore capability →</tspan></text>
  <rect x="794.0" y="282.2" width="325.0" height="220.0" rx="18.0" fill="rgba(42, 17, 27, 0.76)" stroke="rgba(225, 29, 72, 0.30)" stroke-width="1.2" filter="url(#cardShadow)" />
  <path d="M 812.0,282.2 H 1101.0" stroke="url(#accentGradient)" stroke-width="3" stroke-linecap="round" />
  <circle cx="834.0" cy="322.2" r="22.0" fill="rgba(255, 255, 255, 0.05)" /><g transform="translate(818.0, 306.2) scale(1.333)" stroke="#FB7185" fill="none" stroke-width="2.0" stroke-linecap="round" stroke-linejoin="round"><path d="m21 2-2 2m-1.5 1.5L14 9l-2-2-4 4 2 2-6 6a3 3 0 0 0 4 4l6-6 2 2 4-4-2-2 3.5-3.5M19 5l2 2"/></g>
  <rect x="1024.0" y="302.2" width="76.7" height="23.0" rx="11.5" fill="rgba(255, 255, 255, 0.06)" stroke="#F43F5E" stroke-width="1" stroke-opacity="0.35" />
  <text x="1036.0" y="316.9" fill="#F43F5E" font-family="system-ui, -apple-system, sans-serif" font-size="9" font-weight="700" letter-spacing="1.2px">PILLAR 03</text>
  <text x="818.0" y="377.2" fill="#FFF1F2" font-family="system-ui, -apple-system, BlinkMacSystemFont, 'Segoe UI', Roboto, sans-serif" font-size="18" font-weight="700" text-anchor="start"><tspan x="818.0">Predictive Telemetry</tspan></text>
  <text x="818.0" y="407.2" fill="#E2E8F0" font-family="system-ui, -apple-system, BlinkMacSystemFont, 'Segoe UI', Roboto, sans-serif" font-size="13" font-weight="400" text-anchor="start"><tspan x="818.0">Real-time streaming observability</tspan><tspan x="818.0" dy="18.2">with proactive anomaly resolution.</tspan></text>
  <text x="818.0" y="477.2" fill="#E11D48" font-family="system-ui, -apple-system, BlinkMacSystemFont, 'Segoe UI', Roboto, sans-serif" font-size="12" font-weight="600" text-anchor="start"><tspan x="818.0">Explore capability →</tspan></text>
  <rect x="80.0" y="530.2" width="325.0" height="220.0" rx="18.0" fill="rgba(42, 17, 27, 0.76)" stroke="rgba(225, 29, 72, 0.30)" stroke-width="1.2" filter="url(#cardShadow)" />
  <path d="M 98.0,530.2 H 387.0" stroke="url(#accentGradient)" stroke-width="3" stroke-linecap="round" />
  <circle cx="120.0" cy="570.2" r="22.0" fill="rgba(255, 255, 255, 0.05)" /><g transform="translate(104.0, 554.2) scale(1.333)" stroke="#FB7185" fill="none" stroke-width="2.0" stroke-linecap="round" stroke-linejoin="round"><circle cx="12" cy="12" r="10"/><line x1="12" y1="8" x2="12" y2="12"/><line x1="12" y1="16" x2="12.01" y2="16"/></g>
  <rect x="310.0" y="550.2" width="76.7" height="23.0" rx="11.5" fill="rgba(255, 255, 255, 0.06)" stroke="#F43F5E" stroke-width="1" stroke-opacity="0.35" />
  <text x="322.0" y="564.9" fill="#F43F5E" font-family="system-ui, -apple-system, sans-serif" font-size="9" font-weight="700" letter-spacing="1.2px">PILLAR 04</text>
  <text x="104.0" y="625.2" fill="#FFF1F2" font-family="system-ui, -apple-system, BlinkMacSystemFont, 'Segoe UI', Roboto, sans-serif" font-size="18" font-weight="700" text-anchor="start"><tspan x="104.0">Frictionless</tspan><tspan x="104.0" dy="24.3">Integration</tspan></text>
  <text x="104.0" y="655.2" fill="#E2E8F0" font-family="system-ui, -apple-system, BlinkMacSystemFont, 'Segoe UI', Roboto, sans-serif" font-size="13" font-weight="400" text-anchor="start"><tspan x="104.0">Plug-and-play modular APIs</tspan><tspan x="104.0" dy="18.2">supporting seamless cross-system</tspan><tspan x="104.0" dy="18.2">federation.</tspan></text>
  <text x="104.0" y="725.2" fill="#E11D48" font-family="system-ui, -apple-system, BlinkMacSystemFont, 'Segoe UI', Roboto, sans-serif" font-size="12" font-weight="600" text-anchor="start"><tspan x="104.0">Explore capability →</tspan></text>
  <rect x="437.0" y="530.2" width="325.0" height="220.0" rx="18.0" fill="rgba(42, 17, 27, 0.76)" stroke="rgba(225, 29, 72, 0.30)" stroke-width="1.2" filter="url(#cardShadow)" />
  <path d="M 455.0,530.2 H 744.0" stroke="url(#accentGradient)" stroke-width="3" stroke-linecap="round" />
  <circle cx="477.0" cy="570.2" r="22.0" fill="rgba(255, 255, 255, 0.05)" /><g transform="translate(461.0, 554.2) scale(1.333)" stroke="#FB7185" fill="none" stroke-width="2.0" stroke-linecap="round" stroke-linejoin="round"><rect x="2" y="2" width="20" height="8" rx="2" ry="2"/><rect x="2" y="14" width="20" height="8" rx="2" ry="2"/><line x1="6" y1="6" x2="6.01" y2="6"/><line x1="6" y1="18" x2="6.01" y2="18"/></g>
  <rect x="667.0" y="550.2" width="76.7" height="23.0" rx="11.5" fill="rgba(255, 255, 255, 0.06)" stroke="#F43F5E" stroke-width="1" stroke-opacity="0.35" />
  <text x="679.0" y="564.9" fill="#F43F5E" font-family="system-ui, -apple-system, sans-serif" font-size="9" font-weight="700" letter-spacing="1.2px">PILLAR 05</text>
  <text x="461.0" y="625.2" fill="#FFF1F2" font-family="system-ui, -apple-system, BlinkMacSystemFont, 'Segoe UI', Roboto, sans-serif" font-size="18" font-weight="700" text-anchor="start"><tspan x="461.0">Elastic Scalability</tspan></text>
  <text x="461.0" y="655.2" fill="#E2E8F0" font-family="system-ui, -apple-system, BlinkMacSystemFont, 'Segoe UI', Roboto, sans-serif" font-size="13" font-weight="400" text-anchor="start"><tspan x="461.0">Dynamic resource provisioning that</tspan><tspan x="461.0" dy="18.2">scales effortlessly with</tspan><tspan x="461.0" dy="18.2">organizational load.</tspan></text>
  <text x="461.0" y="725.2" fill="#E11D48" font-family="system-ui, -apple-system, BlinkMacSystemFont, 'Segoe UI', Roboto, sans-serif" font-size="12" font-weight="600" text-anchor="start"><tspan x="461.0">Explore capability →</tspan></text>
  <rect x="794.0" y="530.2" width="325.0" height="220.0" rx="18.0" fill="rgba(42, 17, 27, 0.76)" stroke="rgba(225, 29, 72, 0.30)" stroke-width="1.2" filter="url(#cardShadow)" />
  <path d="M 812.0,530.2 H 1101.0" stroke="url(#accentGradient)" stroke-width="3" stroke-linecap="round" />
  <circle cx="834.0" cy="570.2" r="22.0" fill="rgba(255, 255, 255, 0.05)" /><g transform="translate(818.0, 554.2) scale(1.333)" stroke="#FB7185" fill="none" stroke-width="2.0" stroke-linecap="round" stroke-linejoin="round"><path d="m12 3-1.9 5.8a2 2 0 0 1-1.3 1.3L3 12l5.8 1.9a2 2 0 0 1 1.3 1.3L12 21l1.9-5.8a2 2 0 0 1 1.3-1.3L21 12l-5.8-1.9a2 2 0 0 1-1.3-1.3L12 3z"/></g>
  <rect x="1024.0" y="550.2" width="76.7" height="23.0" rx="11.5" fill="rgba(255, 255, 255, 0.06)" stroke="#F43F5E" stroke-width="1" stroke-opacity="0.35" />
  <text x="1036.0" y="564.9" fill="#F43F5E" font-family="system-ui, -apple-system, sans-serif" font-size="9" font-weight="700" letter-spacing="1.2px">PILLAR 06</text>
  <text x="818.0" y="625.2" fill="#FFF1F2" font-family="system-ui, -apple-system, BlinkMacSystemFont, 'Segoe UI', Roboto, sans-serif" font-size="18" font-weight="700" text-anchor="start"><tspan x="818.0">Outcome Acceleration</tspan></text>
  <text x="818.0" y="655.2" fill="#E2E8F0" font-family="system-ui, -apple-system, BlinkMacSystemFont, 'Segoe UI', Roboto, sans-serif" font-size="13" font-weight="400" text-anchor="start"><tspan x="818.0">Systematic workflow optimization</tspan><tspan x="818.0" dy="18.2">delivering measurable compound</tspan><tspan x="818.0" dy="18.2">returns.</tspan></text>
  <text x="818.0" y="725.2" fill="#E11D48" font-family="system-ui, -apple-system, BlinkMacSystemFont, 'Segoe UI', Roboto, sans-serif" font-size="12" font-weight="600" text-anchor="start"><tspan x="818.0">Explore capability →</tspan></text>
  <line x1="60" y1="862.0" x2="1140" y2="862.0" stroke="rgba(255, 255, 255, 0.08)" stroke-width="1" />
  <text x="600.0" y="876.0" fill="#E2E8F0" font-family="system-ui, -apple-system, sans-serif" font-size="11" font-weight="500" opacity="0.65" text-anchor="middle" letter-spacing="0.8px">AI Design Engine • Shri Genesis Software Solutions • Cybersecurity</text>
</svg>