<?xml version="1.0" encoding="UTF-8"?>
<svg xmlns="http://www.w3.org/2000/svg" viewBox="0 0 1080 1080" width="1080" height="1080">
  <defs>

        <linearGradient id="bgGradient" x1="0%" y1="0%" x2="100%" y2="100%">
            <stop offset="0%" stop-color="#0D0D11" />
            <stop offset="100%" stop-color="#1A1A22" />
        </linearGradient>

        <linearGradient id="accentGradient" x1="0%" y1="0%" x2="100%" y2="0%">
            <stop offset="0%" stop-color="#D97706" />
            <stop offset="100%" stop-color="#B45309" />
        </linearGradient>

        <linearGradient id="highlightGradient" x1="0%" y1="0%" x2="100%" y2="100%">
            <stop offset="0%" stop-color="#B45309" />
            <stop offset="100%" stop-color="#FCD34D" />
        </linearGradient>

        <filter id="cardShadow" x="-10%" y="-10%" width="125%" height="125%">
            <feDropShadow dx="0" dy="8" stdDeviation="12" flood-color="#000000" flood-opacity="0.35"/>
        </filter>

        <filter id="accentGlow" x="-20%" y="-20%" width="140%" height="140%">
            <feGaussianBlur stdDeviation="8" result="blur" />
            <feComposite in="SourceGraphic" in2="blur" operator="over" />
        </filter>

        <pattern id="dotGrid" x="0" y="0" width="32" height="32" patternUnits="userSpaceOnUse">
            <circle cx="2" cy="2" r="1.2" fill="rgba(255, 255, 255, 0.05)" />
        </pattern>
  </defs>
  <rect width="1080" height="1080" fill="url(#bgGradient)" />
  <rect width="1080" height="1080" fill="url(#dotGrid)" />
  <circle cx="918.0" cy="162.0" r="486.0" fill="#D97706" opacity="0.12" filter="blur(60px)" />
  <circle cx="108.0" cy="918.0" r="378.0" fill="#B45309" opacity="0.08" filter="blur(50px)" />
  <path d="M 0,270.0 L 162.0,0" stroke="rgba(255,255,255,0.04)" stroke-width="1.5" />
  <path d="M 918.0,1080 L 1080,810.0" stroke="rgba(255,255,255,0.04)" stroke-width="1.5" />
  <circle cx="540.0" cy="540.0" r="320" fill="#D97706" opacity="0.08" filter="blur(80px)" />
  <rect x="430.0" y="100.0" width="176.4" height="26.0" rx="13.0" fill="rgba(217, 119, 6, 0.18)" stroke="#FDE68A" stroke-width="1" stroke-opacity="0.35" />
  <g transform="translate(438.0, 106.0) scale(0.583)" stroke="#FDE68A" fill="none" stroke-width="2.0" stroke-linecap="round" stroke-linejoin="round"><path d="m12 3-1.9 5.8a2 2 0 0 1-1.3 1.3L3 12l5.8 1.9a2 2 0 0 1 1.3 1.3L12 21l1.9-5.8a2 2 0 0 1 1.3-1.3L21 12l-5.8-1.9a2 2 0 0 1-1.3-1.3L12 3z"/></g>
  <text x="458.0" y="117.2" fill="#FDE68A" font-family="system-ui, -apple-system, sans-serif" font-size="12" font-weight="700" letter-spacing="1.2px">E-COMMERCE INSIGHT</text>
  <g transform="translate(470.0, 170) scale(4.5)" opacity="0.18" fill="#FCD34D"><path d="M3 21c3 0 7-1 7-8V5c0-1.25-.75-2-2-2H4c-1.25 0-2 .75-2 2v6c0 1.25.75 2 2 2h4c0 3-1 5-5 5v3zm11 0c3 0 7-1 7-8V5c0-1.25-.75-2-2-2h-4c-1.25 0-2 .75-2 2v6c0 1.25.75 2 2 2h4c0 3-1 5-5 5v3z"/></g>
  <text x="540.0" y="330.0" fill="#FFFBEB" font-family="system-ui, -apple-system, BlinkMacSystemFont, 'Segoe UI', Roboto, sans-serif" font-size="34" font-weight="700" text-anchor="middle"><tspan x="540.0">&quot;Frictionless checkout is the</tspan><tspan x="540.0" dy="45.9">quietest yet most profitable</tspan><tspan x="540.0" dy="45.9">conversion lever in digital</tspan><tspan x="540.0" dy="45.9">commerce.&quot;</tspan></text>
  <text x="540.0" y="512.7" fill="#CBD5E1" font-family="system-ui, -apple-system, BlinkMacSystemFont, 'Segoe UI', Roboto, sans-serif" font-size="17" font-weight="400" text-anchor="middle"><tspan x="540.0">Strategic insights, empirical benchmarks, and</tspan><tspan x="540.0" dy="23.8">modern best practices in e-commerce.</tspan></text>
  <rect x="310.0" y="596.5" width="460.0" height="110.0" rx="20.0" fill="rgba(26, 26, 34, 0.82)" stroke="rgba(217, 119, 6, 0.30)" stroke-width="1.2" filter="url(#cardShadow)" />
  <circle cx="370.0" cy="651.5" r="32" fill="url(#accentGradient)" />
  <text x="370.0" y="658.5" fill="#FFFFFF" font-family="system-ui, -apple-system, BlinkMacSystemFont, 'Segoe UI', Roboto, sans-serif" font-size="18" font-weight="800" text-anchor="middle"><tspan x="370.0">TA</tspan></text>
  <text x="420.0" y="641.5" fill="#FFFBEB" font-family="system-ui, -apple-system, BlinkMacSystemFont, 'Segoe UI', Roboto, sans-serif" font-size="20" font-weight="800" text-anchor="start"><tspan x="420.0">Tariq Al-Mansoor</tspan></text>
  <text x="420.0" y="668.5" fill="#CBD5E1" font-family="system-ui, -apple-system, BlinkMacSystemFont, 'Segoe UI', Roboto, sans-serif" font-size="14" font-weight="500" text-anchor="start"><tspan x="420.0">VP of Digital Experience • NovaStore</tspan></text>
  <line x1="60" y1="1042.0" x2="1020" y2="1042.0" stroke="rgba(255, 255, 255, 0.08)" stroke-width="1" />
  <text x="540.0" y="1056.0" fill="#CBD5E1" font-family="system-ui, -apple-system, sans-serif" font-size="11" font-weight="500" opacity="0.65" text-anchor="middle" letter-spacing="0.8px">AI Design Engine • Shri Genesis Software Solutions • E-commerce</text>
</svg>