<?xml version="1.0" encoding="UTF-8"?>
<svg xmlns="http://www.w3.org/2000/svg" viewBox="0 0 1200 630" width="1200" height="630">
  <defs>

        <linearGradient id="bgGradient" x1="0%" y1="0%" x2="100%" y2="100%">
            <stop offset="0%" stop-color="#2A082C" />
            <stop offset="100%" stop-color="#3B0D2D" />
        </linearGradient>

        <linearGradient id="accentGradient" x1="0%" y1="0%" x2="100%" y2="0%">
            <stop offset="0%" stop-color="#F43F5E" />
            <stop offset="100%" stop-color="#F97316" />
        </linearGradient>

        <linearGradient id="highlightGradient" x1="0%" y1="0%" x2="100%" y2="100%">
            <stop offset="0%" stop-color="#F97316" />
            <stop offset="100%" stop-color="#FB923C" />
        </linearGradient>

        <filter id="cardShadow" x="-10%" y="-10%" width="125%" height="125%">
            <feDropShadow dx="0" dy="8" stdDeviation="12" flood-color="#000000" flood-opacity="0.35"/>
        </filter>

        <filter id="accentGlow" x="-20%" y="-20%" width="140%" height="140%">
            <feGaussianBlur stdDeviation="8" result="blur" />
            <feComposite in="SourceGraphic" in2="blur" operator="over" />
        </filter>

        <pattern id="dotGrid" x="0" y="0" width="32" height="32" patternUnits="userSpaceOnUse">
            <circle cx="2" cy="2" r="1.2" fill="rgba(255, 255, 255, 0.05)" />
        </pattern>
  </defs>
  <rect width="1200" height="630" fill="url(#bgGradient)" />
  <rect width="1200" height="630" fill="url(#dotGrid)" />
  <circle cx="1020.0" cy="94.5" r="283.5" fill="#F43F5E" opacity="0.12" filter="blur(60px)" />
  <circle cx="120.0" cy="535.5" r="220.5" fill="#F97316" opacity="0.08" filter="blur(50px)" />
  <path d="M 0,157.5 L 180.0,0" stroke="rgba(255,255,255,0.04)" stroke-width="1.5" />
  <path d="M 1020.0,630 L 1200,472.5" stroke="rgba(255,255,255,0.04)" stroke-width="1.5" />
  <rect x="80.0" y="80.0" width="192.0" height="26.0" rx="13.0" fill="rgba(244, 63, 94, 0.20)" stroke="#FECDD3" stroke-width="1" stroke-opacity="0.35" />
  <g transform="translate(88.0, 86.0) scale(0.583)" stroke="#FECDD3" fill="none" stroke-width="2.0" stroke-linecap="round" stroke-linejoin="round"><path d="m12 3-1.9 5.8a2 2 0 0 1-1.3 1.3L3 12l5.8 1.9a2 2 0 0 1 1.3 1.3L12 21l1.9-5.8a2 2 0 0 1 1.3-1.3L21 12l-5.8-1.9a2 2 0 0 1-1.3-1.3L12 3z"/></g>
  <text x="108.0" y="97.2" fill="#FECDD3" font-family="system-ui, -apple-system, sans-serif" font-size="12" font-weight="700" letter-spacing="1.2px">CONVERSION OPTIMIZED</text>
  <text x="80.0" y="155.0" fill="#FFF1F2" font-family="system-ui, -apple-system, BlinkMacSystemFont, 'Segoe UI', Roboto, sans-serif" font-size="42" font-weight="800" text-anchor="start"><tspan x="80.0">Unified Digital Storefront &amp;</tspan><tspan x="80.0" dy="49.6">Multichannel Commerce</tspan></text>
  <text x="80.0" y="244.6" fill="#FDA4AF" font-family="system-ui, -apple-system, BlinkMacSystemFont, 'Segoe UI', Roboto, sans-serif" font-size="18" font-weight="400" text-anchor="start"><tspan x="80.0">Strategic insights, empirical benchmarks,</tspan><tspan x="80.0" dy="26.1">and modern best practices in e-commerce.</tspan></text>
  <rect x="80.0" y="306.7" width="540.0" height="52.0" rx="12.0" fill="rgba(255, 255, 255, 0.04)" stroke="rgba(255, 255, 255, 0.12)" stroke-width="1.0"  />
  <g transform="translate(96.0, 320.7) scale(0.917)" stroke="#F43F5E" fill="none" stroke-width="2.0" stroke-linecap="round" stroke-linejoin="round"><path d="M21 12V7H5a2 2 0 0 1 0-4h14v4"/><path d="M3 5v14a2 2 0 0 0 2 2h16v-5"/><circle cx="16" cy="14" r="1"/></g>
  <text x="130.0" y="338.7" fill="#FFF1F2" font-family="system-ui, -apple-system, BlinkMacSystemFont, 'Segoe UI', Roboto, sans-serif" font-size="14" font-weight="600" text-anchor="start"><tspan x="130.0">Core Architecture: Architectural blueprint engineered</tspan><tspan x="130.0" dy="18.9">for ze...</tspan></text>
  <rect x="80.0" y="368.7" width="540.0" height="52.0" rx="12.0" fill="rgba(255, 255, 255, 0.04)" stroke="rgba(255, 255, 255, 0.12)" stroke-width="1.0"  />
  <g transform="translate(96.0, 382.7) scale(0.917)" stroke="#F43F5E" fill="none" stroke-width="2.0" stroke-linecap="round" stroke-linejoin="round"><path d="m12 3-1.9 5.8a2 2 0 0 1-1.3 1.3L3 12l5.8 1.9a2 2 0 0 1 1.3 1.3L12 21l1.9-5.8a2 2 0 0 1 1.3-1.3L21 12l-5.8-1.9a2 2 0 0 1-1.3-1.3L12 3z"/></g>
  <text x="130.0" y="400.7" fill="#FFF1F2" font-family="system-ui, -apple-system, BlinkMacSystemFont, 'Segoe UI', Roboto, sans-serif" font-size="14" font-weight="600" text-anchor="start"><tspan x="130.0">Autonomous Governance: Continuous cryptographic</tspan><tspan x="130.0" dy="18.9">validation e...</tspan></text>
  <rect x="80.0" y="430.7" width="540.0" height="52.0" rx="12.0" fill="rgba(255, 255, 255, 0.04)" stroke="rgba(255, 255, 255, 0.12)" stroke-width="1.0"  />
  <g transform="translate(96.0, 444.7) scale(0.917)" stroke="#F43F5E" fill="none" stroke-width="2.0" stroke-linecap="round" stroke-linejoin="round"><path d="m12 3-1.9 5.8a2 2 0 0 1-1.3 1.3L3 12l5.8 1.9a2 2 0 0 1 1.3 1.3L12 21l1.9-5.8a2 2 0 0 1 1.3-1.3L21 12l-5.8-1.9a2 2 0 0 1-1.3-1.3L12 3z"/></g>
  <text x="130.0" y="462.7" fill="#FFF1F2" font-family="system-ui, -apple-system, BlinkMacSystemFont, 'Segoe UI', Roboto, sans-serif" font-size="14" font-weight="600" text-anchor="start"><tspan x="130.0">Predictive Telemetry: Real-time streaming observability</tspan><tspan x="130.0" dy="18.9">with...</tspan></text>
  <rect x="80.0" y="504.7" width="220.0" height="50.0" rx="24.0" fill="url(#accentGradient)" filter="url(#cardShadow)" />
  <text x="104.0" y="534.7" fill="#FFFFFF" font-family="system-ui, -apple-system, sans-serif" font-size="15" font-weight="700">Explore Documentation</text>
  <g transform="translate(268.0, 520.7) scale(0.750)" stroke="#FFFFFF" fill="none" stroke-width="2.5" stroke-linecap="round" stroke-linejoin="round"><line x1="5" y1="12" x2="19" y2="12"/><polyline points="12 5 19 12 12 19"/></g>
  <circle cx="900.0" cy="330.0" r="210" fill="none" stroke="#F43F5E" stroke-width="1.5" stroke-dasharray="6 6" opacity="0.35" />
  <circle cx="900.0" cy="330.0" r="235" fill="none" stroke="#F97316" stroke-width="1" stroke-dasharray="12 12" opacity="0.2" />
  <rect x="680.0" y="110.0" width="440.0" height="440.0" rx="24.0" fill="rgba(48, 14, 40, 0.72)" stroke="rgba(244, 63, 94, 0.32)" stroke-width="1.5" filter="url(#cardShadow)" />
  <path d="M 704.0,110.0 H 1096.0" stroke="url(#accentGradient)" stroke-width="3" stroke-linecap="round" />
  <circle cx="900.0" cy="230.0" r="56" fill="url(#accentGradient)" opacity="0.15" />
  <g transform="translate(868.0, 198.0) scale(2.667)" stroke="#FB923C" fill="none" stroke-width="1.8" stroke-linecap="round" stroke-linejoin="round"><path d="M21 12V7H5a2 2 0 0 1 0-4h14v4"/><path d="M3 5v14a2 2 0 0 0 2 2h16v-5"/><circle cx="16" cy="14" r="1"/></g>
  <text x="900.0" y="340.0" fill="#FFF1F2" font-family="system-ui, -apple-system, BlinkMacSystemFont, 'Segoe UI', Roboto, sans-serif" font-size="48" font-weight="900" text-anchor="middle"><tspan x="900.0">+42%</tspan></text>
  <text x="900.0" y="375.0" fill="#FDA4AF" font-family="system-ui, -apple-system, BlinkMacSystemFont, 'Segoe UI', Roboto, sans-serif" font-size="15" font-weight="600" text-anchor="middle"><tspan x="900.0">Cart Checkout Velocity</tspan></text>
  <rect x="730.0" y="405.0" width="340.0" height="8.0" rx="4.0" fill="rgba(255, 255, 255, 0.12)" />
  <rect x="730.0" y="405.0" width="278.8" height="8.0" rx="4.0" fill="#F43F5E" />
  <rect x="720.0" y="460.0" width="360.0" height="54.0" rx="16.0" fill="rgba(255, 255, 255, 0.05)" stroke="rgba(255, 255, 255, 0.15)" stroke-width="1.0"  />
  <g transform="translate(736.0, 475.0) scale(0.917)" stroke="#F43F5E" fill="none" stroke-width="2.0" stroke-linecap="round" stroke-linejoin="round"><path d="M12 22s8-4 8-10V5l-8-3-8 3v7c0 6 8 10 8 10z"/><polyline points="9 12 11 14 15 10"/></g>
  <text x="770.0" y="492.0" fill="#FFF1F2" font-family="system-ui, -apple-system, BlinkMacSystemFont, 'Segoe UI', Roboto, sans-serif" font-size="14" font-weight="700" text-anchor="start"><tspan x="770.0">Verified Production Quality</tspan></text>
  <line x1="60" y1="592.0" x2="1140" y2="592.0" stroke="rgba(255, 255, 255, 0.08)" stroke-width="1" />
  <text x="600.0" y="606.0" fill="#FDA4AF" font-family="system-ui, -apple-system, sans-serif" font-size="11" font-weight="500" opacity="0.65" text-anchor="middle" letter-spacing="0.8px">AI Design Engine • Shri Genesis Software Solutions • E-commerce</text>
</svg>