<?xml version="1.0" encoding="UTF-8"?>
<svg xmlns="http://www.w3.org/2000/svg" viewBox="0 0 1080 1080" width="1080" height="1080">
  <defs>

        <linearGradient id="bgGradient" x1="0%" y1="0%" x2="100%" y2="100%">
            <stop offset="0%" stop-color="#111827" />
            <stop offset="100%" stop-color="#1F2937" />
        </linearGradient>

        <linearGradient id="accentGradient" x1="0%" y1="0%" x2="100%" y2="0%">
            <stop offset="0%" stop-color="#6366F1" />
            <stop offset="100%" stop-color="#818CF8" />
        </linearGradient>

        <linearGradient id="highlightGradient" x1="0%" y1="0%" x2="100%" y2="100%">
            <stop offset="0%" stop-color="#818CF8" />
            <stop offset="100%" stop-color="#A5B4FC" />
        </linearGradient>

        <filter id="cardShadow" x="-10%" y="-10%" width="125%" height="125%">
            <feDropShadow dx="0" dy="8" stdDeviation="12" flood-color="#000000" flood-opacity="0.35"/>
        </filter>

        <filter id="accentGlow" x="-20%" y="-20%" width="140%" height="140%">
            <feGaussianBlur stdDeviation="8" result="blur" />
            <feComposite in="SourceGraphic" in2="blur" operator="over" />
        </filter>

        <pattern id="dotGrid" x="0" y="0" width="32" height="32" patternUnits="userSpaceOnUse">
            <circle cx="2" cy="2" r="1.2" fill="rgba(255, 255, 255, 0.05)" />
        </pattern>
  </defs>
  <rect width="1080" height="1080" fill="url(#bgGradient)" />
  <rect width="1080" height="1080" fill="url(#dotGrid)" />
  <circle cx="918.0" cy="162.0" r="486.0" fill="#6366F1" opacity="0.12" filter="blur(60px)" />
  <circle cx="108.0" cy="918.0" r="378.0" fill="#818CF8" opacity="0.08" filter="blur(50px)" />
  <path d="M 0,270.0 L 162.0,0" stroke="rgba(255,255,255,0.04)" stroke-width="1.5" />
  <path d="M 918.0,1080 L 1080,810.0" stroke="rgba(255,255,255,0.04)" stroke-width="1.5" />
  <circle cx="540.0" cy="540.0" r="320" fill="#6366F1" opacity="0.08" filter="blur(80px)" />
  <rect x="430.0" y="100.0" width="168.6" height="26.0" rx="13.0" fill="rgba(99, 102, 241, 0.18)" stroke="#C7D2FE" stroke-width="1" stroke-opacity="0.35" />
  <g transform="translate(438.0, 106.0) scale(0.583)" stroke="#C7D2FE" fill="none" stroke-width="2.0" stroke-linecap="round" stroke-linejoin="round"><path d="m12 3-1.9 5.8a2 2 0 0 1-1.3 1.3L3 12l5.8 1.9a2 2 0 0 1 1.3 1.3L12 21l1.9-5.8a2 2 0 0 1 1.3-1.3L21 12l-5.8-1.9a2 2 0 0 1-1.3-1.3L12 3z"/></g>
  <text x="458.0" y="117.2" fill="#C7D2FE" font-family="system-ui, -apple-system, sans-serif" font-size="12" font-weight="700" letter-spacing="1.2px">EDUCATION INSIGHT</text>
  <g transform="translate(470.0, 170) scale(4.5)" opacity="0.18" fill="#A5B4FC"><path d="M3 21c3 0 7-1 7-8V5c0-1.25-.75-2-2-2H4c-1.25 0-2 .75-2 2v6c0 1.25.75 2 2 2h4c0 3-1 5-5 5v3zm11 0c3 0 7-1 7-8V5c0-1.25-.75-2-2-2h-4c-1.25 0-2 .75-2 2v6c0 1.25.75 2 2 2h4c0 3-1 5-5 5v3z"/></g>
  <text x="540.0" y="330.0" fill="#F9FAFB" font-family="system-ui, -apple-system, BlinkMacSystemFont, 'Segoe UI', Roboto, sans-serif" font-size="34" font-weight="700" text-anchor="middle"><tspan x="540.0">&quot;Curiosity paired with disciplined</tspan><tspan x="540.0" dy="45.9">deliberate practice creates</tspan><tspan x="540.0" dy="45.9">effortless mastery.&quot;</tspan></text>
  <text x="540.0" y="466.8" fill="#9CA3AF" font-family="system-ui, -apple-system, BlinkMacSystemFont, 'Segoe UI', Roboto, sans-serif" font-size="17" font-weight="400" text-anchor="middle"><tspan x="540.0">Pioneering sustainable performance, governance,</tspan><tspan x="540.0" dy="23.8">and scalable excellence in lifelong curiosity as</tspan><tspan x="540.0" dy="23.8">the ultimate competitive advantage.</tspan></text>
  <rect x="310.0" y="574.4" width="460.0" height="110.0" rx="20.0" fill="rgba(31, 41, 55, 0.70)" stroke="rgba(129, 140, 248, 0.20)" stroke-width="1.2" filter="url(#cardShadow)" />
  <circle cx="370.0" cy="629.4" r="32" fill="url(#accentGradient)" />
  <text x="370.0" y="636.4" fill="#FFFFFF" font-family="system-ui, -apple-system, BlinkMacSystemFont, 'Segoe UI', Roboto, sans-serif" font-size="18" font-weight="800" text-anchor="middle"><tspan x="370.0">ML</tspan></text>
  <text x="420.0" y="619.4" fill="#F9FAFB" font-family="system-ui, -apple-system, BlinkMacSystemFont, 'Segoe UI', Roboto, sans-serif" font-size="20" font-weight="800" text-anchor="start"><tspan x="420.0">Maya Lin</tspan></text>
  <text x="420.0" y="646.4" fill="#9CA3AF" font-family="system-ui, -apple-system, BlinkMacSystemFont, 'Segoe UI', Roboto, sans-serif" font-size="14" font-weight="500" text-anchor="start"><tspan x="420.0">Lead Learning Architect • EduVision</tspan></text>
  <line x1="60" y1="1042.0" x2="1020" y2="1042.0" stroke="rgba(255, 255, 255, 0.08)" stroke-width="1" />
  <text x="540.0" y="1056.0" fill="#9CA3AF" font-family="system-ui, -apple-system, sans-serif" font-size="11" font-weight="500" opacity="0.65" text-anchor="middle" letter-spacing="0.8px">AI Design Engine • Shri Genesis Software Solutions • Education</text>
</svg>