<?xml version="1.0" encoding="UTF-8"?>
<svg xmlns="http://www.w3.org/2000/svg" viewBox="0 0 1200 630" width="1200" height="630">
  <defs>

        <linearGradient id="bgGradient" x1="0%" y1="0%" x2="100%" y2="100%">
            <stop offset="0%" stop-color="#2A082C" />
            <stop offset="100%" stop-color="#3B0D2D" />
        </linearGradient>

        <linearGradient id="accentGradient" x1="0%" y1="0%" x2="100%" y2="0%">
            <stop offset="0%" stop-color="#F43F5E" />
            <stop offset="100%" stop-color="#F97316" />
        </linearGradient>

        <linearGradient id="highlightGradient" x1="0%" y1="0%" x2="100%" y2="100%">
            <stop offset="0%" stop-color="#F97316" />
            <stop offset="100%" stop-color="#FB923C" />
        </linearGradient>

        <filter id="cardShadow" x="-10%" y="-10%" width="125%" height="125%">
            <feDropShadow dx="0" dy="8" stdDeviation="12" flood-color="#000000" flood-opacity="0.35"/>
        </filter>

        <filter id="accentGlow" x="-20%" y="-20%" width="140%" height="140%">
            <feGaussianBlur stdDeviation="8" result="blur" />
            <feComposite in="SourceGraphic" in2="blur" operator="over" />
        </filter>

        <pattern id="dotGrid" x="0" y="0" width="32" height="32" patternUnits="userSpaceOnUse">
            <circle cx="2" cy="2" r="1.2" fill="rgba(255, 255, 255, 0.05)" />
        </pattern>
  </defs>
  <rect width="1200" height="630" fill="url(#bgGradient)" />
  <rect width="1200" height="630" fill="url(#dotGrid)" />
  <circle cx="1020.0" cy="94.5" r="283.5" fill="#F43F5E" opacity="0.12" filter="blur(60px)" />
  <circle cx="120.0" cy="535.5" r="220.5" fill="#F97316" opacity="0.08" filter="blur(50px)" />
  <path d="M 0,157.5 L 180.0,0" stroke="rgba(255,255,255,0.04)" stroke-width="1.5" />
  <path d="M 1020.0,630 L 1200,472.5" stroke="rgba(255,255,255,0.04)" stroke-width="1.5" />
  <rect x="80.0" y="70.0" width="186.2" height="25.0" rx="12.5" fill="rgba(239, 68, 68, 0.2)" stroke="#F87171" stroke-width="1" stroke-opacity="0.35" />
  <g transform="translate(88.0, 75.5) scale(0.583)" stroke="#F87171" fill="none" stroke-width="2.0" stroke-linecap="round" stroke-linejoin="round"><path d="M18 8A6 6 0 0 0 6 8c0 7-3 9-3 9h18s-3-2-3-9"/><path d="M13.73 21a2 2 0 0 1-3.46 0"/></g>
  <text x="108.0" y="86.3" fill="#F87171" font-family="system-ui, -apple-system, sans-serif" font-size="11" font-weight="700" letter-spacing="1.2px">OFFICIAL ANNOUNCEMENT</text>
  <rect x="290.0" y="70.0" width="186.2" height="25.0" rx="12.5" fill="rgba(244, 63, 94, 0.20)" stroke="#FECDD3" stroke-width="1" stroke-opacity="0.35" />
  <g transform="translate(298.0, 75.5) scale(0.583)" stroke="#FECDD3" fill="none" stroke-width="2.0" stroke-linecap="round" stroke-linejoin="round"><path d="m12 3-1.9 5.8a2 2 0 0 1-1.3 1.3L3 12l5.8 1.9a2 2 0 0 1 1.3 1.3L12 21l1.9-5.8a2 2 0 0 1 1.3-1.3L21 12l-5.8-1.9a2 2 0 0 1-1.3-1.3L12 3z"/></g>
  <text x="318.0" y="86.3" fill="#FECDD3" font-family="system-ui, -apple-system, sans-serif" font-size="11" font-weight="700" letter-spacing="1.2px">BUSINESS AND STARTUPS</text>
  <text x="80.0" y="150.0" fill="#FFF1F2" font-family="system-ui, -apple-system, BlinkMacSystemFont, 'Segoe UI', Roboto, sans-serif" font-size="40" font-weight="800" text-anchor="start"><tspan x="80.0">Enterprise Founders Accelerator</tspan><tspan x="80.0" dy="47.2">Launch</tspan></text>
  <text x="80.0" y="232.2" fill="#FDA4AF" font-family="system-ui, -apple-system, BlinkMacSystemFont, 'Segoe UI', Roboto, sans-serif" font-size="17" font-weight="400" text-anchor="start"><tspan x="80.0">Strategic insights, empirical benchmarks, and modern best</tspan><tspan x="80.0" dy="23.8">practices in business and startups.</tspan></text>
  <rect x="80.0" y="296.0" width="325.0" height="165.0" rx="16.0" fill="rgba(48, 14, 40, 0.72)" stroke="rgba(244, 63, 94, 0.32)" stroke-width="1.2" filter="url(#cardShadow)" />
  <path d="M 96.0,296.0 H 389.0" stroke="url(#accentGradient)" stroke-width="3" stroke-linecap="round" />
  <g transform="translate(102.0, 320.0) scale(1.083)" stroke="#FB923C" fill="none" stroke-width="2.0" stroke-linecap="round" stroke-linejoin="round"><path d="M4.5 16.5c-1.5 1.26-2 5-2 5s3.74-.5 5-2c.71-.84.7-2.13-.09-2.91a2.18 2.18 0 0 0-2.91-.09z"/><path d="m12 15-3-3a22 22 0 0 1 2-3.95A12.88 12.88 0 0 1 22 2c0 2.72-.78 7.5-6 11a22.35 22.35 0 0 1-4 2z"/><path d="M9 12H4s.55-3.03 2-4c1.62-1.08 5 0 5 0"/><path d="M12 15v5s3.03.55 4-2c1.08-1.62 0-5 0-5"/></g>
  <text x="102.0" y="376.0" fill="#FFF1F2" font-family="system-ui, -apple-system, BlinkMacSystemFont, 'Segoe UI', Roboto, sans-serif" font-size="17" font-weight="700" text-anchor="start"><tspan x="102.0">Core Architecture</tspan></text>
  <text x="102.0" y="404.0" fill="#FDA4AF" font-family="system-ui, -apple-system, BlinkMacSystemFont, 'Segoe UI', Roboto, sans-serif" font-size="13" font-weight="400" text-anchor="start"><tspan x="102.0">Architectural blueprint</tspan><tspan x="102.0" dy="17.6">engineered for zero-bottleneck</tspan><tspan x="102.0" dy="17.6">execution and resilience.</tspan></text>
  <rect x="437.0" y="296.0" width="325.0" height="165.0" rx="16.0" fill="rgba(48, 14, 40, 0.72)" stroke="rgba(244, 63, 94, 0.32)" stroke-width="1.2" filter="url(#cardShadow)" />
  <path d="M 453.0,296.0 H 746.0" stroke="url(#accentGradient)" stroke-width="3" stroke-linecap="round" />
  <g transform="translate(459.0, 320.0) scale(1.083)" stroke="#FB923C" fill="none" stroke-width="2.0" stroke-linecap="round" stroke-linejoin="round"><line x1="12" y1="20" x2="12" y2="10"/><line x1="18" y1="20" x2="18" y2="4"/><line x1="6" y1="20" x2="6" y2="16"/><line x1="2" y1="20" x2="22" y2="20"/></g>
  <text x="459.0" y="376.0" fill="#FFF1F2" font-family="system-ui, -apple-system, BlinkMacSystemFont, 'Segoe UI', Roboto, sans-serif" font-size="17" font-weight="700" text-anchor="start"><tspan x="459.0">Autonomous Governance</tspan></text>
  <text x="459.0" y="404.0" fill="#FDA4AF" font-family="system-ui, -apple-system, BlinkMacSystemFont, 'Segoe UI', Roboto, sans-serif" font-size="13" font-weight="400" text-anchor="start"><tspan x="459.0">Continuous cryptographic</tspan><tspan x="459.0" dy="17.6">validation ensuring compliance</tspan><tspan x="459.0" dy="17.6">and rigorous safety.</tspan></text>
  <rect x="794.0" y="296.0" width="325.0" height="165.0" rx="16.0" fill="rgba(48, 14, 40, 0.72)" stroke="rgba(244, 63, 94, 0.32)" stroke-width="1.2" filter="url(#cardShadow)" />
  <path d="M 810.0,296.0 H 1103.0" stroke="url(#accentGradient)" stroke-width="3" stroke-linecap="round" />
  <g transform="translate(816.0, 320.0) scale(1.083)" stroke="#FB923C" fill="none" stroke-width="2.0" stroke-linecap="round" stroke-linejoin="round"><polyline points="23 6 13.5 15.5 8.5 10.5 1 18"/><polyline points="17 6 23 6 23 12"/></g>
  <text x="816.0" y="376.0" fill="#FFF1F2" font-family="system-ui, -apple-system, BlinkMacSystemFont, 'Segoe UI', Roboto, sans-serif" font-size="17" font-weight="700" text-anchor="start"><tspan x="816.0">Predictive Telemetry</tspan></text>
  <text x="816.0" y="404.0" fill="#FDA4AF" font-family="system-ui, -apple-system, BlinkMacSystemFont, 'Segoe UI', Roboto, sans-serif" font-size="13" font-weight="400" text-anchor="start"><tspan x="816.0">Real-time streaming</tspan><tspan x="816.0" dy="17.6">observability with proactive</tspan><tspan x="816.0" dy="17.6">anomaly resolution.</tspan></text>
  <rect x="80.0" y="491.0" width="210.0" height="46.0" rx="24.0" fill="url(#accentGradient)" filter="url(#cardShadow)" />
  <text x="104.0" y="519.0" fill="#FFFFFF" font-family="system-ui, -apple-system, sans-serif" font-size="15" font-weight="700">Explore Documentation</text>
  <g transform="translate(258.0, 505.0) scale(0.750)" stroke="#FFFFFF" fill="none" stroke-width="2.5" stroke-linecap="round" stroke-linejoin="round"><line x1="5" y1="12" x2="19" y2="12"/><polyline points="12 5 19 12 12 19"/></g>
  <text x="320.0" y="519.0" fill="#FDA4AF" font-family="system-ui, -apple-system, BlinkMacSystemFont, 'Segoe UI', Roboto, sans-serif" font-size="13" font-weight="500" text-anchor="start"><tspan x="320.0">• Live in production • Version 2026.4</tspan></text>
  <line x1="60" y1="592.0" x2="1140" y2="592.0" stroke="rgba(255, 255, 255, 0.08)" stroke-width="1" />
  <text x="600.0" y="606.0" fill="#FDA4AF" font-family="system-ui, -apple-system, sans-serif" font-size="11" font-weight="500" opacity="0.65" text-anchor="middle" letter-spacing="0.8px">AI Design Engine • Shri Genesis Software Solutions • Business and Startups</text>
</svg>