<?xml version="1.0" encoding="UTF-8"?>
<svg xmlns="http://www.w3.org/2000/svg" viewBox="0 0 1080 1080" width="1080" height="1080">
  <defs>

        <linearGradient id="bgGradient" x1="0%" y1="0%" x2="100%" y2="100%">
            <stop offset="0%" stop-color="#081F38" />
            <stop offset="100%" stop-color="#0D2D4F" />
        </linearGradient>

        <linearGradient id="accentGradient" x1="0%" y1="0%" x2="100%" y2="0%">
            <stop offset="0%" stop-color="#0284C7" />
            <stop offset="100%" stop-color="#0D9488" />
        </linearGradient>

        <linearGradient id="highlightGradient" x1="0%" y1="0%" x2="100%" y2="100%">
            <stop offset="0%" stop-color="#0D9488" />
            <stop offset="100%" stop-color="#38BDF8" />
        </linearGradient>

        <filter id="cardShadow" x="-10%" y="-10%" width="125%" height="125%">
            <feDropShadow dx="0" dy="8" stdDeviation="12" flood-color="#000000" flood-opacity="0.35"/>
        </filter>

        <filter id="accentGlow" x="-20%" y="-20%" width="140%" height="140%">
            <feGaussianBlur stdDeviation="8" result="blur" />
            <feComposite in="SourceGraphic" in2="blur" operator="over" />
        </filter>

        <pattern id="dotGrid" x="0" y="0" width="32" height="32" patternUnits="userSpaceOnUse">
            <circle cx="2" cy="2" r="1.2" fill="rgba(255, 255, 255, 0.05)" />
        </pattern>
  </defs>
  <rect width="1080" height="1080" fill="url(#bgGradient)" />
  <rect width="1080" height="1080" fill="url(#dotGrid)" />
  <circle cx="918.0" cy="162.0" r="486.0" fill="#0284C7" opacity="0.12" filter="blur(60px)" />
  <circle cx="108.0" cy="918.0" r="378.0" fill="#0D9488" opacity="0.08" filter="blur(50px)" />
  <path d="M 0,270.0 L 162.0,0" stroke="rgba(255,255,255,0.04)" stroke-width="1.5" />
  <path d="M 918.0,1080 L 1080,810.0" stroke="rgba(255,255,255,0.04)" stroke-width="1.5" />
  <circle cx="85" cy="85" r="14" fill="url(#accentGradient)" />
  <text x="115.0" y="92.0" fill="#F0F9FF" font-family="system-ui, -apple-system, BlinkMacSystemFont, 'Segoe UI', Roboto, sans-serif" font-size="16" font-weight="800" letter-spacing="1.5px" text-anchor="start"><tspan x="115.0">REAL ESTATE</tspan></text>
  <rect x="850.0" y="70.0" width="164.7" height="25.0" rx="12.5" fill="rgba(2, 132, 199, 0.20)" stroke="#7DD3FC" stroke-width="1" stroke-opacity="0.35" />
  <g transform="translate(858.0, 75.5) scale(0.583)" stroke="#7DD3FC" fill="none" stroke-width="2.0" stroke-linecap="round" stroke-linejoin="round"><path d="M12 22s8-4 8-10V5l-8-3-8 3v7c0 6 8 10 8 10z"/><polyline points="9 12 11 14 15 10"/></g>
  <text x="878.0" y="86.3" fill="#7DD3FC" font-family="system-ui, -apple-system, sans-serif" font-size="11" font-weight="700" letter-spacing="1.2px">EXECUTIVE BRIEFING</text>
  <text x="80.0" y="175.0" fill="#F0F9FF" font-family="system-ui, -apple-system, BlinkMacSystemFont, 'Segoe UI', Roboto, sans-serif" font-size="42" font-weight="900" text-anchor="start"><tspan x="80.0">Metro Housing Market Liquidity</tspan><tspan x="80.0" dy="49.6">Trends</tspan></text>
  <text x="80.0" y="264.6" fill="#BAE6FD" font-family="system-ui, -apple-system, BlinkMacSystemFont, 'Segoe UI', Roboto, sans-serif" font-size="18" font-weight="400" text-anchor="start"><tspan x="80.0">Pioneering sustainable performance, governance, and</tspan><tspan x="80.0" dy="25.2">scalable excellence in metro housing market liquidity</tspan><tspan x="80.0" dy="25.2">trends.</tspan></text>
  <rect x="80.0" y="360.0" width="920.0" height="240.0" rx="24.0" fill="rgba(13, 45, 79, 0.74)" stroke="rgba(56, 189, 248, 0.25)" stroke-width="1.5" filter="url(#cardShadow)" />
  <path d="M 104.0,360.0 H 976.0" stroke="url(#accentGradient)" stroke-width="3" stroke-linecap="round" />
  <g transform="translate(115.0, 395.0) scale(1.333)" stroke="#38BDF8" fill="none" stroke-width="2.0" stroke-linecap="round" stroke-linejoin="round"><circle cx="12" cy="12" r="10"/><circle cx="12" cy="12" r="6"/><circle cx="12" cy="12" r="2"/></g>
  <text x="160.0" y="417.0" fill="#7DD3FC" font-family="system-ui, -apple-system, BlinkMacSystemFont, 'Segoe UI', Roboto, sans-serif" font-size="14" font-weight="800" letter-spacing="1.2px" text-anchor="start"><tspan x="160.0">STRATEGIC IMPERATIVE</tspan></text>
  <text x="115.0" y="475.0" fill="#F0F9FF" font-family="system-ui, -apple-system, BlinkMacSystemFont, 'Segoe UI', Roboto, sans-serif" font-size="20" font-weight="600" text-anchor="start"><tspan x="115.0">Architectural blueprint engineered for</tspan><tspan x="115.0" dy="28.0">zero-bottleneck execution and resilience.</tspan></text>
  <rect x="80.0" y="635.0" width="293.3" height="175.0" rx="20.0" fill="rgba(13, 45, 79, 0.74)" stroke="rgba(56, 189, 248, 0.25)" stroke-width="1.2" filter="url(#cardShadow)" />
  <g transform="translate(104.0, 659.0) scale(1.083)" stroke="#38BDF8" fill="none" stroke-width="2.0" stroke-linecap="round" stroke-linejoin="round"><polyline points="23 6 13.5 15.5 8.5 10.5 1 18"/><polyline points="17 6 23 6 23 12"/></g>
  <text x="104.0" y="730.0" fill="#F0F9FF" font-family="system-ui, -apple-system, BlinkMacSystemFont, 'Segoe UI', Roboto, sans-serif" font-size="34" font-weight="900" text-anchor="start"><tspan x="104.0">12.8%</tspan></text>
  <text x="104.0" y="765.0" fill="#BAE6FD" font-family="system-ui, -apple-system, BlinkMacSystemFont, 'Segoe UI', Roboto, sans-serif" font-size="14" font-weight="500" text-anchor="start"><tspan x="104.0">Average Rental</tspan><tspan x="104.0" dy="17.5">Yield</tspan></text>
  <rect x="393.3" y="635.0" width="293.3" height="175.0" rx="20.0" fill="rgba(13, 45, 79, 0.74)" stroke="rgba(56, 189, 248, 0.25)" stroke-width="1.2" filter="url(#cardShadow)" />
  <g transform="translate(417.3, 659.0) scale(1.083)" stroke="#38BDF8" fill="none" stroke-width="2.0" stroke-linecap="round" stroke-linejoin="round"><line x1="12" y1="1" x2="12" y2="23"/><path d="M17 5H9.5a3.5 3.5 0 0 0 0 7h5a3.5 3.5 0 0 1 0 7H6"/></g>
  <text x="417.3" y="730.0" fill="#F0F9FF" font-family="system-ui, -apple-system, BlinkMacSystemFont, 'Segoe UI', Roboto, sans-serif" font-size="34" font-weight="900" text-anchor="start"><tspan x="417.3">$140M</tspan></text>
  <text x="417.3" y="765.0" fill="#BAE6FD" font-family="system-ui, -apple-system, BlinkMacSystemFont, 'Segoe UI', Roboto, sans-serif" font-size="14" font-weight="500" text-anchor="start"><tspan x="417.3">Transaction Volume</tspan></text>
  <rect x="706.7" y="635.0" width="293.3" height="175.0" rx="20.0" fill="rgba(13, 45, 79, 0.74)" stroke="rgba(56, 189, 248, 0.25)" stroke-width="1.2" filter="url(#cardShadow)" />
  <g transform="translate(730.7, 659.0) scale(1.083)" stroke="#38BDF8" fill="none" stroke-width="2.0" stroke-linecap="round" stroke-linejoin="round"><rect x="4" y="2" width="16" height="20" rx="2" ry="2"/><path d="M9 22v-4h6v4M8 6h.01M16 6h.01M12 6h.01M8 10h.01M16 10h.01M12 10h.01M8 14h.01M16 14h.01M12 14h.01"/></g>
  <text x="730.7" y="730.0" fill="#F0F9FF" font-family="system-ui, -apple-system, BlinkMacSystemFont, 'Segoe UI', Roboto, sans-serif" font-size="34" font-weight="900" text-anchor="start"><tspan x="730.7">98.5%</tspan></text>
  <text x="730.7" y="765.0" fill="#BAE6FD" font-family="system-ui, -apple-system, BlinkMacSystemFont, 'Segoe UI', Roboto, sans-serif" font-size="14" font-weight="500" text-anchor="start"><tspan x="730.7">Occupancy Ratio</tspan></text>
  <line x1="60" y1="1042.0" x2="1020" y2="1042.0" stroke="rgba(255, 255, 255, 0.08)" stroke-width="1" />
  <text x="540.0" y="1056.0" fill="#BAE6FD" font-family="system-ui, -apple-system, sans-serif" font-size="11" font-weight="500" opacity="0.65" text-anchor="middle" letter-spacing="0.8px">AI Design Engine • Shri Genesis Software Solutions • Real Estate</text>
</svg>